<?xml version="1.0" ?><svg id="Layer_1" style="enable-background:new 0 0 341.463 341.463;" version="1.1" viewBox="0 0 341.463 341.463" xml:space="preserve" xmlns="http://www.w3.org/2000/svg" xmlns:xlink="http://www.w3.org/1999/xlink"><g><path d="M127.261,119.94c-29.808,0-54.059,24.251-54.059,54.06s24.251,54.06,54.059,54.06c29.809,0,54.06-24.251,54.06-54.06   S157.07,119.94,127.261,119.94z M127.261,218.06c-24.294,0-44.059-19.765-44.059-44.06s19.765-44.06,44.059-44.06   c24.295,0,44.06,19.765,44.06,44.06S151.556,218.06,127.261,218.06z"/><path d="M336.463,144.532c2.762,0,5-2.239,5-5V37.518c0-2.761-2.238-5-5-5h-27.518V5c0-2.761-2.238-5-5-5H170.031   c-1.453,0-2.835,0.632-3.784,1.732c-0.95,1.1-1.375,2.559-1.162,3.997c0.211,1.434,0.318,2.889,0.318,4.324   c0,8.751-3.771,16.848-10.398,22.464h-38.139c-6.628-5.617-10.398-13.714-10.398-22.464c0-1.429,0.107-2.885,0.319-4.327   c0.211-1.438-0.213-2.896-1.163-3.995C104.674,0.632,103.293,0,101.84,0H5C2.239,0,0,2.239,0,5v173.736   c0,2.702,2.146,4.915,4.846,4.998c11.161,0.344,21.504,6.125,27.67,15.465l0.002-0.001v37.804   c-6.17,9.378-16.409,15.151-27.672,15.497C2.146,252.582,0,254.794,0,257.496v46.449c0,2.761,2.239,5,5,5h27.518v27.518   c0,2.761,2.239,5,5,5h55.465c1.416,0,2.766-0.601,3.714-1.652s1.406-2.457,1.259-3.865c-0.108-1.038-0.163-2.08-0.163-3.097   c0-16.249,13.219-29.468,29.468-29.468s29.468,13.219,29.468,29.468c0,1.021-0.055,2.062-0.163,3.095   c-0.147,1.409,0.311,2.813,1.259,3.866c0.948,1.052,2.298,1.653,3.714,1.653h174.923c2.762,0,5-2.239,5-5V208.468   c0-2.761-2.238-5-5-5c-16.249,0-29.468-13.219-29.468-29.468S320.214,144.532,336.463,144.532z M175.403,10.053   c0-0.018,0-0.036,0-0.053h123.542v22.518H168.4C172.92,26.014,175.403,18.252,175.403,10.053z M10,174.156V10h86.468   c0,0.018,0,0.036,0,0.053c0,8.199,2.483,15.961,7.004,22.464H37.518c-2.761,0-5,2.239-5,5v146.781   C26.151,178.895,18.35,175.34,10,174.156z M10,298.945v-36.864c8.395-1.176,16.169-4.713,22.518-10.114v46.978H10z M296.995,174   c0,20.069,15.058,36.688,34.468,39.153v118.31H166.705c-0.732-21.124-18.145-38.082-39.444-38.082s-38.711,16.958-39.444,38.082   H42.518V42.518h288.945v92.33C312.053,137.312,296.995,153.931,296.995,174z"/><path d="M253.032,70.881c-17.44,0-31.629,14.188-31.629,31.629s14.188,31.629,31.629,31.629s31.629-14.188,31.629-31.629   S270.473,70.881,253.032,70.881z M253.032,124.139c-11.926,0-21.629-9.703-21.629-21.629s9.703-21.629,21.629-21.629   s21.629,9.703,21.629,21.629S264.958,124.139,253.032,124.139z"/><path d="M234.146,226.713c-21.763,0-39.468,17.705-39.468,39.468s17.705,39.468,39.468,39.468s39.468-17.705,39.468-39.468   S255.908,226.713,234.146,226.713z M234.146,295.648c-16.249,0-29.468-13.219-29.468-29.468s13.219-29.468,29.468-29.468   s29.468,13.219,29.468,29.468S250.395,295.648,234.146,295.648z"/></g><g/><g/><g/><g/><g/><g/><g/><g/><g/><g/><g/><g/><g/><g/><g/></svg>